<mxfile host="app.diagrams.net" modified="2021-03-29T19:35:54.978Z" agent="5.0 (X11)" etag="1xiSNLXeffUgDeFzQu68" version="14.5.3" type="github">
  <diagram name="Page-1" id="c4acf3e9-155e-7222-9cf6-157b1a14988f">
    <mxGraphModel dx="1350" dy="771" grid="1" gridSize="10" guides="1" tooltips="1" connect="1" arrows="1" fold="1" page="1" pageScale="1" pageWidth="850" pageHeight="1100" background="#ffffff" math="0" shadow="0">
      <root>
        <mxCell id="0" />
        <mxCell id="1" parent="0" />
        <mxCell id="hE9tEKMbrZzEUy-agP18-8" style="edgeStyle=orthogonalEdgeStyle;rounded=0;orthogonalLoop=1;jettySize=auto;html=1;" edge="1" parent="1" source="hE9tEKMbrZzEUy-agP18-1" target="hE9tEKMbrZzEUy-agP18-2">
          <mxGeometry relative="1" as="geometry" />
        </mxCell>
        <mxCell id="hE9tEKMbrZzEUy-agP18-1" value="Пользователь" style="html=1;" vertex="1" parent="1">
          <mxGeometry x="370" y="10" width="110" height="50" as="geometry" />
        </mxCell>
        <mxCell id="hE9tEKMbrZzEUy-agP18-9" style="edgeStyle=orthogonalEdgeStyle;rounded=0;orthogonalLoop=1;jettySize=auto;html=1;" edge="1" parent="1" source="hE9tEKMbrZzEUy-agP18-2">
          <mxGeometry relative="1" as="geometry">
            <mxPoint x="425" y="190" as="targetPoint" />
          </mxGeometry>
        </mxCell>
        <mxCell id="hE9tEKMbrZzEUy-agP18-2" value="Сайт" style="html=1;" vertex="1" parent="1">
          <mxGeometry x="370" y="100" width="110" height="50" as="geometry" />
        </mxCell>
        <mxCell id="hE9tEKMbrZzEUy-agP18-15" style="edgeStyle=orthogonalEdgeStyle;rounded=0;orthogonalLoop=1;jettySize=auto;html=1;entryX=0.5;entryY=0;entryDx=0;entryDy=0;" edge="1" parent="1" source="hE9tEKMbrZzEUy-agP18-3" target="hE9tEKMbrZzEUy-agP18-6">
          <mxGeometry relative="1" as="geometry" />
        </mxCell>
        <mxCell id="hE9tEKMbrZzEUy-agP18-16" style="edgeStyle=orthogonalEdgeStyle;rounded=0;orthogonalLoop=1;jettySize=auto;html=1;entryX=0.5;entryY=0;entryDx=0;entryDy=0;" edge="1" parent="1" source="hE9tEKMbrZzEUy-agP18-3" target="hE9tEKMbrZzEUy-agP18-4">
          <mxGeometry relative="1" as="geometry" />
        </mxCell>
        <mxCell id="hE9tEKMbrZzEUy-agP18-17" style="edgeStyle=orthogonalEdgeStyle;rounded=0;orthogonalLoop=1;jettySize=auto;html=1;" edge="1" parent="1" source="hE9tEKMbrZzEUy-agP18-3" target="hE9tEKMbrZzEUy-agP18-5">
          <mxGeometry relative="1" as="geometry" />
        </mxCell>
        <mxCell id="hE9tEKMbrZzEUy-agP18-3" value="Главная страница" style="html=1;" vertex="1" parent="1">
          <mxGeometry x="370" y="190" width="110" height="50" as="geometry" />
        </mxCell>
        <mxCell id="hE9tEKMbrZzEUy-agP18-18" style="edgeStyle=orthogonalEdgeStyle;rounded=0;orthogonalLoop=1;jettySize=auto;html=1;" edge="1" parent="1" source="hE9tEKMbrZzEUy-agP18-4" target="hE9tEKMbrZzEUy-agP18-13">
          <mxGeometry relative="1" as="geometry">
            <Array as="points">
              <mxPoint x="425" y="360" />
              <mxPoint x="105" y="360" />
            </Array>
          </mxGeometry>
        </mxCell>
        <mxCell id="hE9tEKMbrZzEUy-agP18-19" style="edgeStyle=orthogonalEdgeStyle;rounded=0;orthogonalLoop=1;jettySize=auto;html=1;entryX=0.5;entryY=0;entryDx=0;entryDy=0;" edge="1" parent="1" source="hE9tEKMbrZzEUy-agP18-4" target="hE9tEKMbrZzEUy-agP18-10">
          <mxGeometry relative="1" as="geometry">
            <Array as="points">
              <mxPoint x="425" y="360" />
              <mxPoint x="265" y="360" />
            </Array>
          </mxGeometry>
        </mxCell>
        <mxCell id="hE9tEKMbrZzEUy-agP18-20" style="edgeStyle=orthogonalEdgeStyle;rounded=0;orthogonalLoop=1;jettySize=auto;html=1;entryX=0.5;entryY=0;entryDx=0;entryDy=0;" edge="1" parent="1" source="hE9tEKMbrZzEUy-agP18-4" target="hE9tEKMbrZzEUy-agP18-11">
          <mxGeometry relative="1" as="geometry" />
        </mxCell>
        <mxCell id="hE9tEKMbrZzEUy-agP18-21" style="edgeStyle=orthogonalEdgeStyle;rounded=0;orthogonalLoop=1;jettySize=auto;html=1;entryX=0.5;entryY=0;entryDx=0;entryDy=0;" edge="1" parent="1" source="hE9tEKMbrZzEUy-agP18-4" target="hE9tEKMbrZzEUy-agP18-12">
          <mxGeometry relative="1" as="geometry">
            <Array as="points">
              <mxPoint x="425" y="360" />
              <mxPoint x="585" y="360" />
            </Array>
          </mxGeometry>
        </mxCell>
        <mxCell id="hE9tEKMbrZzEUy-agP18-22" style="edgeStyle=orthogonalEdgeStyle;rounded=0;orthogonalLoop=1;jettySize=auto;html=1;entryX=0.5;entryY=0;entryDx=0;entryDy=0;" edge="1" parent="1" source="hE9tEKMbrZzEUy-agP18-4" target="hE9tEKMbrZzEUy-agP18-14">
          <mxGeometry relative="1" as="geometry">
            <Array as="points">
              <mxPoint x="425" y="360" />
              <mxPoint x="745" y="360" />
            </Array>
          </mxGeometry>
        </mxCell>
        <mxCell id="hE9tEKMbrZzEUy-agP18-4" value="Каталог" style="html=1;" vertex="1" parent="1">
          <mxGeometry x="370" y="300" width="110" height="50" as="geometry" />
        </mxCell>
        <mxCell id="hE9tEKMbrZzEUy-agP18-5" value="Новости" style="html=1;" vertex="1" parent="1">
          <mxGeometry x="550" y="300" width="110" height="50" as="geometry" />
        </mxCell>
        <mxCell id="hE9tEKMbrZzEUy-agP18-6" value="Подать&lt;br&gt; Объявление" style="html=1;" vertex="1" parent="1">
          <mxGeometry x="190" y="300" width="110" height="50" as="geometry" />
        </mxCell>
        <mxCell id="hE9tEKMbrZzEUy-agP18-10" value="Телевизоры" style="html=1;" vertex="1" parent="1">
          <mxGeometry x="210" y="420" width="110" height="50" as="geometry" />
        </mxCell>
        <mxCell id="hE9tEKMbrZzEUy-agP18-11" value="Компьютеры" style="html=1;" vertex="1" parent="1">
          <mxGeometry x="370" y="420" width="110" height="50" as="geometry" />
        </mxCell>
        <mxCell id="hE9tEKMbrZzEUy-agP18-12" value="Кухня" style="html=1;" vertex="1" parent="1">
          <mxGeometry x="530" y="420" width="110" height="50" as="geometry" />
        </mxCell>
        <mxCell id="hE9tEKMbrZzEUy-agP18-13" value="Одежда" style="html=1;" vertex="1" parent="1">
          <mxGeometry x="50" y="420" width="110" height="50" as="geometry" />
        </mxCell>
        <mxCell id="hE9tEKMbrZzEUy-agP18-14" value="Спорт" style="html=1;" vertex="1" parent="1">
          <mxGeometry x="690" y="420" width="110" height="50" as="geometry" />
        </mxCell>
      </root>
    </mxGraphModel>
  </diagram>
</mxfile>
